<?xml version="1.0" encoding="utf-8"?>
<!-- Generator: Adobe Illustrator 23.0.0, SVG Export Plug-In . SVG Version: 6.00 Build 0)  -->
<svg version="1.1" id="Layer_1" xmlns="http://www.w3.org/2000/svg" xmlns:xlink="http://www.w3.org/1999/xlink" x="0px" y="0px"
	 viewBox="0 0 2405.22 2405.22" style="enable-background:new 0 0 2405.22 2405.22;" xml:space="preserve">
<g>
	<path d="M1373.31,1065.02c243.49,137.15,384.36,348.73,455.77,615.68c10.13-23.5,19.5-44.66,28.4-66.02
		c22.51-54.02,44.78-108.14,67.21-162.2c7.48-18.03,15.85-35.74,22.56-54.05c6.12-16.69,16.56-28.21,34.38-29.18
		c17.33-0.94,28.9,9.62,36.14,24.79c26.52,55.62,43.21,114.02,49.95,175.31c10.82,98.32-0.27,194.22-32.87,287.4
		c-37.65,107.62-90.96,205.07-184.96,274.89c-54.67,40.61-115.95,62.9-184.22,64.34c-37.63,0.79-75.32-0.82-112.91,0.49
		c-70.4,2.45-125.67-23.54-164.47-84.57c-54.9,67.29-127.37,87.77-210.69,84.81c-85.46-3.03-150.31-39.47-195.82-109.86
		c-17.17,18.72-33.02,38.47-51.4,55.47c-33.41,30.9-74.09,47.89-119.12,52.02c-40.92,3.76-82.03,4.85-122.51-6.19
		c-97.25-26.52-164.36-112.32-164.96-213.44c-0.47-78.72,0.85-157.45,0.79-236.18c-0.09-122.44,0.34-244.9-1.4-367.33
		c-1.33-93.67,11.04-158.94,72.97-236.39c-17.35-36.37-34.64-71.19-50.52-106.64c-6.08-13.57-10.38-28.35-12.8-43.03
		c-2.26-13.71-9.48-18.24-21.8-21.53c-24.56-6.55-50-12.19-72.61-23.24c-73.82-36.09-110.88-97.58-113.89-178.92
		c-3.29-89.22,13.98-174.35,55.36-254.11c39.59-76.32,95.03-138.53,166.5-186.02c88.66-58.91,186.75-84.81,293.05-83.29
		c91.28,1.31,182.61-0.62,273.9,0.49c151.95,1.85,278.51,61.11,376.98,176.14c90.08,105.23,126.67,229.63,116.14,367.03
		c-6.21,81.04-70.66,158.44-155.22,173.28c-1.43,0.25-2.71,1.62-4.11,1.7c-34.5,2.12-50.46,21.41-55.58,54.77
		C1388.71,1029.84,1379.57,1047.25,1373.31,1065.02z M645.25,1187.08c-35.02,44.37-50.75,92.75-50.69,146.81
		c0.19,168.1,0.06,336.2,0.07,504.3c0,46.16-0.36,92.32,0.15,138.47c0.68,62.81,40.11,117.36,98.76,139.63
		c32.08,12.19,65.25,10.06,98.14,9.1c81.85-2.39,146.47-69.4,146.67-150.93c0.2-83.82-0.11-167.64,0.25-251.45
		c0.04-9.95-2.51-13.66-12.97-15.05c-54.96-7.27-107.85-21.94-157.55-47.07c-17.26-8.73-23.53-20.72-17.87-34.21
		c5.93-14.13,18.57-17.87,36.87-11.9c128.84,42.07,257.87,43.06,386.99,1.29c16.83-5.44,28.64-1.76,34.2,11.39
		c5.26,12.44-1.01,24.61-16.51,32.28c-49.81,24.64-102.44,40.15-157.31,48.06c-8.25,1.19-12.33,3.02-12.28,12.56
		c0.43,87.83-1.38,175.71,1.11,263.48c1.76,61.93,36.65,104.31,92.03,129.98c34.6,16.04,71.78,13.34,108.14,11.12
		c82.19-5.02,142.45-70.72,142.51-153.18c0.04-48.18-0.64-96.38,0.14-144.55c1.6-98.31,3.72-196.62,6.26-294.91
		c0.5-19.47,3.17-38.98,6.17-58.26c1.91-12.28,7.21-23.56,22.35-24.22c14.97-0.65,18.89,10.6,22.39,21.97
		c0.29,0.94,0.32,1.98,0.4,2.98c3.95,48.4,10.71,96.76,11.31,145.19c1.66,133.99,0.7,268.01,0.86,402.01
		c0.08,61.05,41.58,103.11,102.49,103.63c40.65,0.34,81.31,0.37,121.96-0.06c13.49-0.14,27.17-0.99,40.4-3.47
		c81.3-15.24,141.45-63.26,187.01-128.88c84.89-122.28,124.19-258.15,110.58-407.53c-2.57-28.16-9.03-55.96-13.69-83.93
		c-4.92,2.17-6.02,3.82-6.77,5.61c-38.55,91.82-77.26,183.58-115.38,275.58c-5.46,13.19-9.43,27.33-11.73,41.42
		c-5.16,31.62-8.07,63.61-13.43,95.19c-2.82,16.61-16.23,24.45-30.85,20.36c-13.55-3.79-18.2-13.79-18.79-27.3
		c-1.66-38.06-0.97-76.55-6.67-114.04c-12.43-81.79-34.03-161.44-65.57-238.2c-63.48-154.55-159.3-284.2-295.29-382.61
		c-26.14-18.91-54.29-35.04-81.67-52.55c-82.79,116.5-193.95,176.12-332.78,184.65C869.33,1318.22,745.92,1287.2,645.25,1187.08z
		 M519.86,891.95c0-5.48-0.06-9.94,0.01-14.41c1.13-69.68,1.56-139.38,3.75-209.03c1.07-34.03,5.01-67.99,8.45-101.9
		c1.87-18.38,15.22-28.89,27.66-21.36c6.45,3.9,11.95,13.78,12.93,21.58c4.23,33.81,8.32,67.79,9.36,101.8
		c2.32,75.67,1.45,151.44,4.37,227.08c2.94,76.17,28.55,145.41,75.79,205.21c69.25,87.65,160.92,132.79,272.48,138.04
		c92.22,4.34,180.13-8.53,257.33-63.95c92.12-66.14,143.73-156.12,152.92-268.92c3.86-47.4,1.14-95.31,3.3-142.9
		c2.99-66.07,7.67-132.06,11.86-198.07c0.72-11.3,5.07-20.99,18.25-21.73c13.78-0.78,19.18,8.45,21.58,20.33
		c0.69,3.44,1.87,6.85,2.01,10.31c3.82,93.18,7.59,186.36,11.2,279.54c0.49,12.71,0.07,25.46,0.07,39.8
		c11.4-2.91,21.15-4.97,30.64-7.88c53.36-16.41,90.06-61.16,93.02-116.89c5.64-106.17-19.66-203.85-85.17-289.08
		c-86.19-112.14-200.5-169.17-341.89-170.52c-91.25-0.87-182.52,0.53-273.77-0.37c-69.8-0.69-136.47,11.48-199.42,42.14
		c-79.29,38.62-140.98,96.26-185.22,172.46c-43.02,74.1-59.29,154.46-56.28,239.55C397.52,831.08,448.34,885.09,519.86,891.95z"/>
	<path d="M972.18,959.47c24.95,5.97,49.19,8.87,71,17.72c28.31,11.49,33.91,34.09,19.68,61.47c-20.9,40.21-71.31,63.46-117.18,53.88
		c-32.28-6.74-58.57-22.2-74.93-52c-16.46-29.98-10.35-53.74,21.82-65.01C918.01,966.62,945.85,964.51,972.18,959.47z"/>
	<path d="M1160.84,838.05c-38.5-0.72-71.27-37.29-70.58-78.79c0.68-41.25,28.69-70.41,66.73-69.48c37.6,0.92,70.8,38.62,70.32,79.84
		C1226.85,809.26,1198.21,838.75,1160.84,838.05z"/>
	<path d="M777.66,689.79c30.62-0.3,53.92,19.23,62.44,52.34c8.99,34.93-11.46,77.06-44.32,91.26
		c-34.91,15.09-71.98-1.98-85.93-39.55C692.22,746.31,728.73,690.28,777.66,689.79z"/>
</g>
</svg>
