<?xml version="1.0" encoding="utf-8"?>
<!-- Generator: Adobe Illustrator 23.0.0, SVG Export Plug-In . SVG Version: 6.00 Build 0)  -->
<svg version="1.1" id="Layer_1" xmlns="http://www.w3.org/2000/svg" xmlns:xlink="http://www.w3.org/1999/xlink" x="0px" y="0px"
	 viewBox="0 0 1920 1920" style="enable-background:new 0 0 1920 1920;" xml:space="preserve">
<style type="text/css">
	.st0{font-family:'MyriadPro-Regular';}
	.st1{font-size:557.2532px;}
</style>
<g>
	<path d="M377.39,915.41c80.85,45.54,127.63,115.8,151.34,204.44c3.36-7.8,6.48-14.83,9.43-21.92
		c7.48-17.94,14.87-35.91,22.32-53.86c2.49-5.99,5.26-11.87,7.49-17.95c2.03-5.54,5.5-9.37,11.42-9.69c5.75-0.31,9.6,3.19,12,8.23
		c8.81,18.47,14.35,37.86,16.59,58.21c3.59,32.65-0.09,64.49-10.91,95.43c-12.5,35.73-30.2,68.09-61.42,91.28
		c-18.15,13.48-38.5,20.88-61.17,21.36c-12.49,0.26-25.01-0.27-37.49,0.16c-23.38,0.81-41.73-7.82-54.61-28.08
		c-18.23,22.34-42.29,29.14-69.96,28.16c-28.38-1.01-49.91-13.11-65.02-36.48c-5.7,6.21-10.96,12.77-17.07,18.42
		c-11.09,10.26-24.6,15.9-39.56,17.27c-13.59,1.25-27.24,1.61-40.68-2.06c-32.29-8.81-54.58-37.3-54.78-70.87
		c-0.15-26.14,0.28-52.28,0.26-78.42c-0.03-40.66,0.11-81.32-0.46-121.97c-0.44-31.1,3.66-52.78,24.23-78.49
		c-5.76-12.08-11.5-23.64-16.77-35.41c-2.02-4.51-3.45-9.41-4.25-14.29c-0.75-4.55-3.15-6.06-7.24-7.15
		c-8.16-2.17-16.6-4.05-24.11-7.72c-24.51-11.98-36.82-32.4-37.82-59.41c-1.09-29.63,4.64-57.89,18.38-84.38
		c13.15-25.34,31.55-46,55.29-61.77c29.44-19.56,62.01-28.16,97.31-27.66c30.31,0.43,60.64-0.21,90.95,0.16
		c50.46,0.61,92.48,20.29,125.18,58.49c29.91,34.94,42.06,76.25,38.56,121.87c-2.06,26.91-23.46,52.61-51.54,57.54
		c-0.47,0.08-0.9,0.54-1.37,0.57c-11.45,0.7-16.75,7.11-18.45,18.19C382.5,903.73,379.47,909.51,377.39,915.41z M135.64,955.94
		c-11.63,14.73-16.85,30.8-16.83,48.75c0.06,55.82,0.02,111.64,0.02,167.45c0,15.33-0.12,30.65,0.05,45.98
		c0.23,20.86,13.32,38.97,32.79,46.37c10.65,4.05,21.67,3.34,32.59,3.02c27.18-0.79,48.64-23.05,48.7-50.12
		c0.07-27.83-0.04-55.66,0.08-83.5c0.01-3.3-0.83-4.54-4.31-5c-18.25-2.41-35.81-7.28-52.31-15.63c-5.73-2.9-7.81-6.88-5.93-11.36
		c1.97-4.69,6.17-5.93,12.24-3.95c42.78,13.97,85.63,14.3,128.5,0.43c5.59-1.81,9.51-0.58,11.36,3.78
		c1.75,4.13-0.34,8.17-5.48,10.72c-16.54,8.18-34.01,13.33-52.23,15.96c-2.74,0.4-4.09,1-4.08,4.17
		c0.14,29.16-0.46,58.35,0.37,87.49c0.58,20.56,12.17,34.64,30.56,43.16c11.49,5.33,23.84,4.43,35.91,3.69
		c27.29-1.67,47.3-23.48,47.32-50.86c0.01-16-0.21-32,0.05-48c0.53-32.64,1.23-65.29,2.08-97.93c0.17-6.47,1.05-12.94,2.05-19.35
		c0.63-4.08,2.39-7.82,7.42-8.04c4.97-0.22,6.27,3.52,7.44,7.29c0.1,0.31,0.11,0.66,0.13,0.99c1.31,16.07,3.56,32.13,3.75,48.21
		c0.55,44.49,0.23,88.99,0.29,133.49c0.03,20.27,13.81,34.24,34.03,34.41c13.5,0.11,27,0.12,40.5-0.02
		c4.48-0.05,9.02-0.33,13.42-1.15c27-5.06,46.97-21.01,62.1-42.8c28.19-40.6,41.24-85.72,36.72-135.32
		c-0.85-9.35-3-18.58-4.55-27.87c-1.63,0.72-2,1.27-2.25,1.86c-12.8,30.49-25.65,60.96-38.31,91.51c-1.81,4.38-3.13,9.08-3.9,13.75
		c-1.71,10.5-2.68,21.12-4.46,31.61c-0.94,5.52-5.39,8.12-10.24,6.76c-4.5-1.26-6.04-4.58-6.24-9.07
		c-0.55-12.64-0.32-25.42-2.21-37.87c-4.13-27.16-11.3-53.61-21.77-79.09c-21.08-51.32-52.9-94.37-98.05-127.04
		c-8.68-6.28-18.03-11.64-27.12-17.45c-27.49,38.68-64.4,58.48-110.5,61.31C210.04,999.49,169.06,989.19,135.64,955.94z M94,857.94
		c0-1.82-0.02-3.3,0-4.78c0.38-23.14,0.52-46.28,1.24-69.41c0.35-11.3,1.66-22.58,2.81-33.84c0.62-6.1,5.05-9.59,9.19-7.09
		c2.14,1.3,3.97,4.58,4.29,7.16c1.4,11.23,2.76,22.51,3.11,33.8c0.77,25.13,0.48,50.29,1.45,75.4c0.98,25.29,9.48,48.28,25.17,68.14
		c22.99,29.11,53.43,44.09,90.48,45.84c30.62,1.44,59.81-2.83,85.45-21.24c30.59-21.96,47.73-51.84,50.78-89.3
		c1.28-15.74,0.38-31.65,1.1-47.45c0.99-21.94,2.55-43.85,3.94-65.77c0.24-3.75,1.68-6.97,6.06-7.22c4.57-0.26,6.37,2.8,7.17,6.75
		c0.23,1.14,0.62,2.27,0.67,3.42c1.27,30.94,2.52,61.88,3.72,92.82c0.16,4.22,0.02,8.45,0.02,13.21c3.79-0.97,7.02-1.65,10.17-2.62
		c17.72-5.45,29.91-20.31,30.89-38.82c1.87-35.25-6.53-67.69-28.28-95.99c-28.62-37.23-66.58-56.17-113.52-56.62
		c-30.3-0.29-60.61,0.18-90.9-0.12c-23.18-0.23-45.31,3.81-66.22,13.99c-26.33,12.82-46.81,31.96-61.5,57.27
		c-14.28,24.6-19.69,51.29-18.69,79.54C53.38,837.73,70.25,855.67,94,857.94z"/>
	<path d="M244.19,880.37c8.29,1.98,16.33,2.94,23.58,5.88c9.4,3.81,11.26,11.32,6.53,20.41c-6.94,13.35-23.68,21.07-38.91,17.89
		c-10.72-2.24-19.45-7.37-24.88-17.27c-5.47-9.96-3.44-17.84,7.24-21.59C226.21,882.74,235.45,882.04,244.19,880.37z"/>
	<path d="M306.84,840.05c-12.78-0.24-23.66-12.38-23.44-26.16c0.23-13.7,9.53-23.38,22.16-23.07c12.48,0.31,23.51,12.82,23.35,26.51
		C328.76,830.49,319.24,840.28,306.84,840.05z"/>
	<path d="M179.6,790.82c10.17-0.1,17.9,6.38,20.73,17.38c2.99,11.6-3.81,25.59-14.71,30.3c-11.59,5.01-23.9-0.66-28.53-13.13
		C151.23,809.58,163.35,790.98,179.6,790.82z"/>
</g>
<text transform="matrix(1 0 0 1 578.2236 1291.3555)" class="st0 st1">Zonal</text>
</svg>
